<svg width="24" height="24" viewBox="0 0 24 24" fill="none" xmlns="http://www.w3.org/2000/svg">
<path fill-rule="evenodd" clip-rule="evenodd" d="M16.25 17.5C16.25 17.0858 16.5858 16.75 17 16.75H21C21.4142 16.75 21.75 17.0858 21.75 17.5C21.75 17.9142 21.4142 18.25 21 18.25H17C16.5858 18.25 16.25 17.9142 16.25 17.5Z" fill="#5fe1d8"/>
<path fill-rule="evenodd" clip-rule="evenodd" d="M12.75 21C12.75 20.5858 13.0858 20.25 13.5 20.25H15.5C15.9142 20.25 16.25 20.5858 16.25 21C16.25 21.4142 15.9142 21.75 15.5 21.75H13.5C13.0858 21.75 12.75 21.4142 12.75 21Z" fill="#5fe1d8"/>
<path fill-rule="evenodd" clip-rule="evenodd" d="M1.35448 8.11793C1.48949 7.88987 1.73484 7.75 1.99986 7.75H3.99986C4.17532 7.75 4.34521 7.81151 4.48 7.92383L7.2714 10.25H18.9999C19.1753 10.25 19.3452 10.3115 19.48 10.4238L22.48 12.9238C22.7226 13.126 22.8126 13.4584 22.7051 13.7553C22.5976 14.0522 22.3156 14.25 21.9999 14.25H5.99981C5.61223 14.25 5.27616 14.067 5.03694 13.8996C4.7807 13.7202 4.52954 13.4825 4.29416 13.2282C3.82161 12.7177 3.33589 12.0559 2.90664 11.4193C2.47407 10.7778 2.08367 10.1391 1.80229 9.6626C1.66129 9.42383 1.54697 9.22459 1.46763 9.08455C1.42795 9.0145 1.39698 8.9592 1.37575 8.9211L1.35135 8.87712L1.34486 8.86536L1.34257 8.86121C1.34252 8.86111 1.34231 8.86073 1.99986 8.5L1.34257 8.86121C1.2151 8.62885 1.21947 8.34599 1.35448 8.11793ZM3.30314 9.25C3.54493 9.64975 3.83701 10.1161 4.15032 10.5807C4.56394 11.1941 4.99965 11.7823 5.39493 12.2093C5.59346 12.4237 5.76282 12.5767 5.89718 12.6707C5.97243 12.7234 6.01636 12.7433 6.03249 12.75H19.9283L18.7283 11.75H6.99986C6.82441 11.75 6.65451 11.6885 6.51972 11.5762L3.72833 9.25H3.30314Z" fill="#5fe1d8"/>
<path fill-rule="evenodd" clip-rule="evenodd" d="M7.38356 6.5728C7.52367 6.37062 7.75402 6.25 8 6.25H9.3303C9.48513 6.25 9.63616 6.29791 9.76266 6.38717L15.4324 10.3872C15.7708 10.6259 15.8516 11.0939 15.6128 11.4324C15.3741 11.7708 14.9061 11.8516 14.5676 11.6128L9.09237 7.75H9.08225L10.2023 10.7367C10.3477 11.1245 10.1512 11.5568 9.76335 11.7022C9.37551 11.8477 8.9432 11.6512 8.79776 11.2633L7.29776 7.26334C7.21139 7.03302 7.24345 6.77498 7.38356 6.5728Z" fill="#5fe1d8"/>
<path fill-rule="evenodd" clip-rule="evenodd" d="M9.38461 12.7934C9.77489 12.9321 9.97878 13.361 9.84002 13.7513L8.06267 18.75H8.30342L14.487 12.9529C14.7892 12.6696 15.2639 12.6849 15.5472 12.9871C15.8305 13.2892 15.8151 13.7639 15.513 14.0472L9.11296 20.0472C8.97395 20.1775 8.79055 20.25 8.60001 20.25H7C6.75629 20.25 6.52778 20.1316 6.38725 19.9325C6.24672 19.7334 6.2117 19.4784 6.29334 19.2488L8.42669 13.2488C8.56546 12.8585 8.99434 12.6546 9.38461 12.7934Z" fill="#5fe1d8"/>
<path fill-rule="evenodd" clip-rule="evenodd" d="M18.2236 2.10893C18.5724 1.87812 19.0032 1.75 19.5111 1.75C20.5777 1.75 21.3796 2.35251 21.8217 3.10813C22.2532 3.84559 22.3848 4.79523 22.0744 5.62099C21.7513 6.48059 21.0497 6.88343 20.5196 7.06619C20.2512 7.1587 20.0045 7.2038 19.8258 7.22628C19.7355 7.23764 19.6599 7.24354 19.6044 7.24662C19.5765 7.24816 19.5535 7.24901 19.536 7.24946L19.5138 7.2499L19.5058 7.24998L19.5027 7.25L19.5013 7.25C19.501 7.25 19.5001 7.25 19.5001 6.5V7.25H14.5001C14.1322 7.25 13.8187 6.98323 13.7598 6.62014C13.7009 6.25725 13.9137 5.90521 14.2623 5.78869L14.2638 5.78819L14.2727 5.78515L14.3123 5.77123C14.3477 5.75858 14.3997 5.73953 14.4626 5.71506C14.5901 5.66547 14.7547 5.59665 14.9147 5.51668C15.0564 5.44582 15.1702 5.3781 15.2476 5.32071C15.2447 5.10811 15.2456 4.80379 15.2989 4.52753C15.3785 4.11499 15.5975 3.61215 16.1653 3.32888C16.5963 3.11386 17.0811 3.10644 17.4211 3.13475C17.4489 3.06229 17.4813 2.98779 17.5191 2.91262C17.6586 2.63572 17.8793 2.33681 18.2236 2.10893ZM18.7501 4.00072C18.7501 4.00315 18.7501 4.00558 18.75 4.00801C18.7475 4.24308 18.6349 4.46357 18.4455 4.60338C18.2543 4.74453 18.0076 4.7867 17.7804 4.71711L17.7818 4.71753C17.7818 4.71753 17.781 4.71729 17.7794 4.71683L17.7609 4.71162C17.7427 4.70663 17.7137 4.69902 17.6762 4.69029C17.6002 4.67259 17.4946 4.65154 17.3772 4.63771C17.1075 4.60597 16.9174 4.62995 16.8349 4.67112C16.8345 4.67132 16.8339 4.67148 16.8332 4.67169C16.825 4.67405 16.7967 4.68217 16.7717 4.81175C16.7569 4.88837 16.7494 4.98404 16.7476 5.10615C16.7463 5.1881 16.7473 5.24921 16.7484 5.31733C16.7492 5.36981 16.7501 5.42646 16.7501 5.5C16.7501 5.58892 16.7387 5.67229 16.7191 5.75H19.4959C19.4961 5.74999 19.4955 5.75001 19.4959 5.75C19.4997 5.7499 19.509 5.74961 19.5214 5.74892C19.5464 5.74753 19.587 5.7445 19.6386 5.73801C19.7439 5.72477 19.8847 5.69844 20.0307 5.6481C20.3293 5.54515 20.5638 5.37654 20.6703 5.09331C20.8026 4.74119 20.7591 4.26226 20.527 3.86561C20.3056 3.48713 19.9556 3.25 19.5111 3.25C19.2635 3.25 19.1277 3.30938 19.0515 3.35982C18.9708 3.41319 18.9082 3.48928 18.8588 3.58738C18.8078 3.68854 18.7786 3.79868 18.7633 3.88981C18.756 3.9336 18.7526 3.96844 18.7511 3.98937C18.7504 3.99924 18.7501 4.00564 18.75 4.00801C18.75 4.00813 18.75 4.00792 18.75 4.00801L18.7501 4.00491L18.7501 4.0027L18.7501 4.00072Z" fill="#5fe1d8"/>
</svg>
